<?xml version="1.0" encoding="UTF-8"?>
<svg width="77px" height="77px" viewBox="0 0 77 77" version="1.1" xmlns="http://www.w3.org/2000/svg" xmlns:xlink="http://www.w3.org/1999/xlink">
    <!-- Generator: Sketch 43.2 (39069) - http://www.bohemiancoding.com/sketch -->
    <title>Shape Copy 3</title>
    <desc>Created with Sketch.</desc>
    <defs>
        <path d="M77,20.3622222 C77,15.5711111 76.1587037,11.6355556 74.4761111,8.55555556 C71.3961111,2.85185185 65.4642593,7.10542736e-15 56.6805556,7.10542736e-15 L20.3194444,7.10542736e-15 C6.77314815,7.10542736e-15 0,6.78740741 0,20.3622222 L0,56.7233333 C0,70.2411111 6.77314815,77 20.3194444,77 L56.6805556,77 C65.4642593,77 71.3961111,74.1624074 74.4761111,68.4872222 C76.1587037,65.4072222 77,61.4859259 77,56.7233333 L77,20.3622222 L77,20.3622222 Z M69.436455,19.5688292 L69.436455,54.5131671 C69.436455,64.4620257 64.448322,69.436455 54.4720561,69.436455 L19.5277182,69.436455 C9.57885968,69.436455 4.60443041,64.4620257 4.60443041,54.5131671 L4.60443041,19.5688292 C4.60443041,9.59256335 9.57885968,4.60443041 19.5277182,4.60443041 L54.4720561,4.60443041 C64.448322,4.60443041 69.436455,9.59256335 69.436455,19.5688292 L69.436455,19.5688292 Z M23.3395296,50.2691078 C23.4914868,49.5942753 23.8548648,49.0878223 24.4296638,48.7497488 C34.8352264,42.4362074 43.5906863,42.3779882 50.6960434,48.5750914 C51.2034036,49.05555 51.4932748,49.6194949 51.565657,50.266926 C51.5966872,50.9595878 51.4073818,51.5753639 50.9977409,52.1142542 C50.5172822,52.6216144 49.9484263,52.8986921 49.2911734,52.9454874 C48.6083334,53.0021045 47.9925574,52.8127991 47.4438452,52.3775712 C41.913557,47.8363615 35.1031121,48.028676 27.0125103,52.9545145 C26.4121244,53.3024099 25.7873087,53.3954681 25.1380632,53.2336891 C24.4632307,53.0817319 23.9518668,52.7055604 23.6039714,52.1051745 C23.2403109,51.5401974 23.1521637,50.9281752 23.3395296,50.2691078 L23.3395296,50.2691078 Z M26.2288089,28.983245 C26.2288089,27.5306568 25.7217734,26.2973272 24.7077024,25.2832562 C23.7210388,24.3239999 22.5151165,23.8443717 21.0899357,23.8443717 C19.6647549,23.8443717 18.4451289,24.3239999 17.431058,25.2832562 C16.4443943,26.2973272 15.9510625,27.5306568 15.9510625,28.983245 C15.9510625,30.4084258 16.4443943,31.6006444 17.431058,32.5599007 C18.4451289,33.601379 19.6647549,34.1221182 21.0899357,34.1221182 C22.5151165,34.1221182 23.7210388,33.601379 24.7077024,32.5599007 C25.7217734,31.6006444 26.2288089,30.4084258 26.2288089,28.983245 L26.2288089,28.983245 Z M56.5687164,32.5599007 C57.5827874,31.6006444 58.0898229,30.4084258 58.0898229,28.983245 C58.0898229,27.5306568 57.5827874,26.2973272 56.5687164,25.2832562 C55.5820528,24.3239999 54.3761305,23.8443717 52.9509497,23.8443717 C51.5257688,23.8443717 50.3061429,24.3239999 49.2920719,25.2832562 C48.3054083,26.2973272 47.8120764,27.5306568 47.8120764,28.983245 C47.8120764,30.4084258 48.3054083,31.6006444 49.2920719,32.5599007 C50.3061429,33.601379 51.5257688,34.1221182 52.9509497,34.1221182 C54.3761305,34.1221182 55.5820528,33.601379 56.5687164,32.5599007 Z" id="path-1"></path>
    </defs>
    <g id="Symbols" stroke="none" stroke-width="1" fill="none" fill-rule="evenodd">
        <g id="4">
            <mask id="mask-2" fill="white">
                <use xlink:href="#path-1"></use>
            </mask>
            <use id="Shape-Copy-3" fill="#FF5454" fill-rule="nonzero" xlink:href="#path-1"></use>
        </g>
    </g>
</svg>