<?xml version="1.0" encoding="UTF-8"?>
<svg width="242px" height="80px" viewBox="0 0 242 80" version="1.1" xmlns="http://www.w3.org/2000/svg" xmlns:xlink="http://www.w3.org/1999/xlink">
    <!-- Generator: Sketch 42 (36781) - http://www.bohemiancoding.com/sketch -->
    <title>Bolig status</title>
    <desc>Created with Sketch.</desc>
    <defs>
        <path d="M40,10.5777778 C40,8.08888889 39.562963,6.04444444 38.6888889,4.44444444 C37.0888889,1.48148148 34.0074074,3.69113109e-15 29.4444444,3.69113109e-15 L10.5555556,3.69113109e-15 C3.51851852,3.69113109e-15 0,3.52592593 0,10.5777778 L0,29.4666667 C0,36.4888889 3.51851852,40 10.5555556,40 L29.4444444,40 C34.0074074,40 37.0888889,38.5259259 38.6888889,35.5777778 C39.562963,33.9777778 40,31.9407407 40,29.4666667 L40,10.5777778 L40,10.5777778 Z M36.0708857,10.1656256 L36.0708857,28.3185284 C36.0708857,33.4867666 33.4796478,36.0708857 28.297172,36.0708857 L10.1442692,36.0708857 C4.976031,36.0708857 2.3919119,33.4867666 2.3919119,28.3185284 L2.3919119,10.1656256 C2.3919119,4.98314979 4.976031,2.3919119 10.1442692,2.3919119 L28.297172,2.3919119 C33.4796478,2.3919119 36.0708857,4.98314979 36.0708857,10.1656256 L36.0708857,10.1656256 Z M12.124431,26.1138222 C12.2033698,25.7632599 12.3921376,25.5001675 12.6907344,25.3245448 C18.0962215,22.044783 22.6445124,22.0145393 26.3356069,25.2338137 C26.5991707,25.4834026 26.7497531,25.776361 26.7873543,26.1126888 C26.8034739,26.4725132 26.7051334,26.7923968 26.4923329,27.0723398 C26.242744,27.3359036 25.9472345,27.47984 25.6058043,27.5041493 C25.2510823,27.5335608 24.9311986,27.4352203 24.6461533,27.2091279 C21.7732764,24.8500579 18.2353829,24.9499615 14.0324729,27.5088387 C13.7205841,27.6895636 13.3960045,27.7379055 13.0587341,27.6538644 C12.7081718,27.5749257 12.4425282,27.3795119 12.2618033,27.0676231 C12.0728888,26.7741285 12.027098,26.4561949 12.124431,26.1138222 L12.124431,26.1138222 Z M13.6253553,15.0562312 C13.6253553,14.3016399 13.3619602,13.6609492 12.8351701,13.1341591 C12.3226176,12.6358441 11.6961644,12.3866866 10.9558108,12.3866866 C10.2154571,12.3866866 9.58188517,12.6358441 9.05509505,13.1341591 C8.5425425,13.6609492 8.28626622,14.3016399 8.28626622,15.0562312 C8.28626622,15.7965848 8.5425425,16.4159192 9.05509505,16.9142341 C9.58188517,17.4552618 10.2154571,17.7257757 10.9558108,17.7257757 C11.6961644,17.7257757 12.3226176,17.4552618 12.8351701,16.9142341 C13.3619602,16.4159192 13.6253553,15.7965848 13.6253553,15.0562312 L13.6253553,15.0562312 Z M29.3863462,16.9142341 C29.9131363,16.4159192 30.1765314,15.7965848 30.1765314,15.0562312 C30.1765314,14.3016399 29.9131363,13.6609492 29.3863462,13.1341591 C28.8737936,12.6358441 28.2473405,12.3866866 27.5069868,12.3866866 C26.7666332,12.3866866 26.1330613,12.6358441 25.6062711,13.1341591 C25.0937186,13.6609492 24.8374423,14.3016399 24.8374423,15.0562312 C24.8374423,15.7965848 25.0937186,16.4159192 25.6062711,16.9142341 C26.1330613,17.4552618 26.7666332,17.7257757 27.5069868,17.7257757 C28.2473405,17.7257757 28.8737936,17.4552618 29.3863462,16.9142341 Z" id="path-1"></path>
        <path d="M40,10.5777778 C40,8.08888889 39.562963,6.04444444 38.6888889,4.44444444 C37.0888889,1.48148148 34.0074074,3.69113109e-15 29.4444444,3.69113109e-15 L10.5555556,3.69113109e-15 C3.51851852,3.69113109e-15 0,3.52592593 0,10.5777778 L0,29.4666667 C0,36.4888889 3.51851852,40 10.5555556,40 L29.4444444,40 C34.0074074,40 37.0888889,38.5259259 38.6888889,35.5777778 C39.562963,33.9777778 40,31.9407407 40,29.4666667 L40,10.5777778 L40,10.5777778 Z M36.0708857,10.1656256 L36.0708857,28.3185284 C36.0708857,33.4867666 33.4796478,36.0708857 28.297172,36.0708857 L10.1442692,36.0708857 C4.976031,36.0708857 2.3919119,33.4867666 2.3919119,28.3185284 L2.3919119,10.1656256 C2.3919119,4.98314979 4.976031,2.3919119 10.1442692,2.3919119 L28.297172,2.3919119 C33.4796478,2.3919119 36.0708857,4.98314979 36.0708857,10.1656256 L36.0708857,10.1656256 Z M13.6253553,15.0562312 C13.6253553,14.3016399 13.3619602,13.6609492 12.8351701,13.1341591 C12.3226176,12.6358441 11.6961644,12.3866866 10.9558108,12.3866866 C10.2154571,12.3866866 9.58188517,12.6358441 9.05509505,13.1341591 C8.5425425,13.6609492 8.28626622,14.3016399 8.28626622,15.0562312 C8.28626622,15.7965848 8.5425425,16.4159192 9.05509505,16.9142341 C9.58188517,17.4552618 10.2154571,17.7257757 10.9558108,17.7257757 C11.6961644,17.7257757 12.3226176,17.4552618 12.8351701,16.9142341 C13.3619602,16.4159192 13.6253553,15.7965848 13.6253553,15.0562312 L13.6253553,15.0562312 Z M29.3863462,16.9142341 C29.9131363,16.4159192 30.1765314,15.7965848 30.1765314,15.0562312 C30.1765314,14.3016399 29.9131363,13.6609492 29.3863462,13.1341591 C28.8737936,12.6358441 28.2473405,12.3866866 27.5069868,12.3866866 C26.7666332,12.3866866 26.1330613,12.6358441 25.6062711,13.1341591 C25.0937186,13.6609492 24.8374423,14.3016399 24.8374423,15.0562312 C24.8374423,15.7965848 25.0937186,16.4159192 25.6062711,16.9142341 C26.1330613,17.4552618 26.7666332,17.7257757 27.5069868,17.7257757 C28.2473405,17.7257757 28.8737936,17.4552618 29.3863462,16.9142341 Z M12.987013,27.012987 C12.987013,26.1522835 13.6852512,25.4545455 14.5535502,25.4545455 L24.4074888,25.4545455 C25.2726634,25.4545455 25.974026,26.1462828 25.974026,27.012987 L25.974026,27.012987 C25.974026,27.8736905 25.2757877,28.5714286 24.4074888,28.5714286 L14.5535502,28.5714286 C13.6883756,28.5714286 12.987013,27.8796912 12.987013,27.012987 L12.987013,27.012987 Z" id="path-3"></path>
        <path d="M80,21.1555556 C80,16.1777778 79.1259259,12.0888889 77.3777778,8.88888889 C74.1777778,2.96296296 68.0148148,7.38226219e-15 58.8888889,7.38226219e-15 L21.1111111,7.38226219e-15 C7.03703704,7.38226219e-15 0,7.05185185 0,21.1555556 L0,58.9333333 C0,72.9777778 7.03703704,80 21.1111111,80 L58.8888889,80 C68.0148148,80 74.1777778,77.0518519 77.3777778,71.1555556 C79.1259259,67.9555556 80,63.8814815 80,58.9333333 L80,21.1555556 L80,21.1555556 Z M72.1417714,20.3312511 L72.1417714,56.6370568 C72.1417714,66.9735332 66.9592956,72.1417714 56.594344,72.1417714 L20.2885384,72.1417714 C9.95206201,72.1417714 4.7838238,66.9735332 4.7838238,56.6370568 L4.7838238,20.3312511 C4.7838238,9.96629958 9.95206201,4.7838238 20.2885384,4.7838238 L56.594344,4.7838238 C66.9592956,4.7838238 72.1417714,9.96629958 72.1417714,20.3312511 L72.1417714,20.3312511 Z M28.2758157,54.971261 C28.6744676,55.5692389 29.2154953,55.9251782 29.8988987,56.0390788 C42.3425356,58.288615 50.856603,55.0851615 55.4411008,46.4287185 C55.7543274,45.7737902 55.8255152,45.118862 55.6546644,44.4639337 C55.4268632,43.7805303 55.0139737,43.2537402 54.4159957,42.8835633 C53.7610674,42.5703368 53.1061392,42.5133865 52.4512109,42.7127125 C51.7678075,42.9120385 51.2410174,43.324928 50.8708406,43.9513811 C47.1975473,50.4152383 40.5201266,52.7644375 30.8385784,50.9989787 C30.1266999,50.8850781 29.4860092,51.0274538 28.9165064,51.4261058 C28.3185284,51.8247578 27.9625891,52.3800231 27.8486885,53.0919016 C27.7063128,53.775305 27.8486885,54.4017581 28.2758157,54.971261 L28.2758157,54.971261 Z M27.2507106,30.1124623 C27.2507106,28.6032798 26.7239204,27.3218984 25.6703402,26.2683182 C24.6452351,25.2716882 23.3923289,24.7733732 21.9116215,24.7733732 C20.4309141,24.7733732 19.1637703,25.2716882 18.1101901,26.2683182 C17.085085,27.3218984 16.5725324,28.6032798 16.5725324,30.1124623 C16.5725324,31.5931697 17.085085,32.8318383 18.1101901,33.8284683 C19.1637703,34.9105237 20.4309141,35.4515514 21.9116215,35.4515514 C23.3923289,35.4515514 24.6452351,34.9105237 25.6703402,33.8284683 C26.7239204,32.8318383 27.2507106,31.5931697 27.2507106,30.1124623 L27.2507106,30.1124623 Z M58.7726924,33.8284683 C59.8262726,32.8318383 60.3530627,31.5931697 60.3530627,30.1124623 C60.3530627,28.6032798 59.8262726,27.3218984 58.7726924,26.2683182 C57.7475873,25.2716882 56.494681,24.7733732 55.0139737,24.7733732 C53.5332663,24.7733732 52.2661225,25.2716882 51.2125423,26.2683182 C50.1874372,27.3218984 49.6748846,28.6032798 49.6748846,30.1124623 C49.6748846,31.5931697 50.1874372,32.8318383 51.2125423,33.8284683 C52.2661225,34.9105237 53.5332663,35.4515514 55.0139737,35.4515514 C56.494681,35.4515514 57.7475873,34.9105237 58.7726924,33.8284683 Z" id="path-5"></path>
        <path d="M40,10.5777778 C40,8.08888889 39.562963,6.04444444 38.6888889,4.44444444 C37.0888889,1.48148148 34.0074074,0 29.4444444,0 L10.5555556,0 C3.51851852,0 0,3.52592593 0,10.5777778 L0,29.4666667 C0,36.4888889 3.51851852,40 10.5555556,40 L29.4444444,40 C34.0074074,40 37.0888889,38.5259259 38.6888889,35.5777778 C39.562963,33.9777778 40,31.9407407 40,29.4666667 L40,10.5777778 L40,10.5777778 Z M36.0710029,10.1656256 L36.0710029,28.3185284 C36.0710029,33.4867666 33.479765,36.0708857 28.2972892,36.0708857 L10.1443864,36.0708857 C4.97614821,36.0708857 2.3920291,33.4867666 2.3920291,28.3185284 L2.3920291,10.1656256 C2.3920291,4.98314979 4.97614821,2.3919119 10.1443864,2.3919119 L28.2972892,2.3919119 C33.479765,2.3919119 36.0710029,4.98314979 36.0710029,10.1656256 L36.0710029,10.1656256 Z M12.6165616,26.4130463 C17.9639856,29.7866473 22.2090598,29.1153758 25.9557763,25.9610102 C26.2236559,25.7160591 26.3793282,25.4257734 26.4227933,25.090153 C26.4451903,24.7306648 26.3524475,24.4091136 26.1445651,24.1254993 C25.899614,23.8576198 25.6066616,23.7085479 25.2657077,23.6782836 C24.911553,23.6426858 24.5900018,23.7354285 24.301054,23.9565118 C21.3874432,26.2650839 18.1538282,26.88434 13.9962168,24.2525017 C13.6875296,24.0663611 13.3638432,24.0123619 13.0251574,24.0905039 C12.6732708,24.1633125 12.4042572,24.3540604 12.2181167,24.6627476 C12.0241087,24.9529005 11.9727762,25.2699865 12.0641191,25.6140058 C12.1369277,25.9658924 12.3210752,26.2322392 12.6165616,26.4130463 Z M13.6254725,15.0562312 C13.6254725,14.3016399 13.3620774,13.6609492 12.8352873,13.1341591 C12.3227348,12.6358441 11.6962816,12.3866866 10.955928,12.3866866 C10.2155743,12.3866866 9.58200237,12.6358441 9.05521225,13.1341591 C8.5426597,13.6609492 8.28638343,14.3016399 8.28638343,15.0562312 C8.28638343,15.7965848 8.5426597,16.4159192 9.05521225,16.9142341 C9.58200237,17.4552618 10.2155743,17.7257757 10.955928,17.7257757 C11.6962816,17.7257757 12.3227348,17.4552618 12.8352873,16.9142341 C13.3620774,16.4159192 13.6254725,15.7965848 13.6254725,15.0562312 L13.6254725,15.0562312 Z M29.3864634,16.9142341 C29.9132535,16.4159192 30.1766486,15.7965848 30.1766486,15.0562312 C30.1766486,14.3016399 29.9132535,13.6609492 29.3864634,13.1341591 C28.8739108,12.6358441 28.2474577,12.3866866 27.507104,12.3866866 C26.7667504,12.3866866 26.1331785,12.6358441 25.6063883,13.1341591 C25.0938358,13.6609492 24.8375595,14.3016399 24.8375595,15.0562312 C24.8375595,15.7965848 25.0938358,16.4159192 25.6063883,16.9142341 C26.1331785,17.4552618 26.7667504,17.7257757 27.507104,17.7257757 C28.2474577,17.7257757 28.8739108,17.4552618 29.3864634,16.9142341 Z" id="path-7"></path>
    </defs>
    <g id="✏️️-v1" stroke="none" stroke-width="1" fill="none" fill-rule="evenodd">
        <g id="Home---Status-3-(Orange)-Copy-2" transform="translate(-67.000000, -112.000000)">
            <g id="Bolig-status" transform="translate(67.000000, 112.000000)">
                <g id="4" transform="translate(0.000000, 20.000000)">
                    <mask id="mask-2" fill="white">
                        <use xlink:href="#path-1"></use>
                    </mask>
                    <use id="Shape-Copy-3" fill="#FF5454" fill-rule="nonzero" xlink:href="#path-1"></use>
                    <g id="Status---Disabled" mask="url(#mask-2)" fill-rule="evenodd" fill="#C5CDD4">
                        <rect id="Disabled" x="0" y="0" width="40" height="40"></rect>
                    </g>
                </g>
                <g id="3" transform="translate(50.000000, 20.000000)">
                    <mask id="mask-4" fill="white">
                        <use xlink:href="#path-3"></use>
                    </mask>
                    <use id="Combined-Shape" fill="#FFAA54" fill-rule="evenodd" xlink:href="#path-3"></use>
                    <g id="Status---Disabled" mask="url(#mask-4)" fill-rule="evenodd" fill="#C5CDD4">
                        <rect id="Disabled" x="0" y="0" width="40" height="40"></rect>
                    </g>
                </g>
                <g id="2" transform="translate(106.000000, 0.000000)">
                    <mask id="mask-6" fill="white">
                        <use xlink:href="#path-5"></use>
                    </mask>
                    <use id="Shape" fill="#3498DB" fill-rule="nonzero" xlink:href="#path-5"></use>
                    <g id="Status---Disabled-OFF" mask="url(#mask-6)"></g>
                </g>
                <g id="1" transform="translate(202.000000, 20.000000)">
                    <mask id="mask-8" fill="white">
                        <use xlink:href="#path-7"></use>
                    </mask>
                    <use id="Shape-Copy" fill="#4FC14E" fill-rule="nonzero" xlink:href="#path-7"></use>
                    <g id="Status---Disabled" mask="url(#mask-8)" fill-rule="evenodd" fill="#C5CDD4">
                        <rect id="Disabled" x="0" y="0" width="40" height="40"></rect>
                    </g>
                </g>
            </g>
        </g>
    </g>
</svg>