<?xml version="1.0" encoding="UTF-8"?>
<svg width="236px" height="80px" viewBox="0 0 236 80" version="1.1" xmlns="http://www.w3.org/2000/svg" xmlns:xlink="http://www.w3.org/1999/xlink">
    <!-- Generator: Sketch 42 (36781) - http://www.bohemiancoding.com/sketch -->
    <title>Bolig status</title>
    <desc>Created with Sketch.</desc>
    <defs>
        <path d="M40,10.5777778 C40,8.08888889 39.562963,6.04444444 38.6888889,4.44444444 C37.0888889,1.48148148 34.0074074,3.69113109e-15 29.4444444,3.69113109e-15 L10.5555556,3.69113109e-15 C3.51851852,3.69113109e-15 0,3.52592593 0,10.5777778 L0,29.4666667 C0,36.4888889 3.51851852,40 10.5555556,40 L29.4444444,40 C34.0074074,40 37.0888889,38.5259259 38.6888889,35.5777778 C39.562963,33.9777778 40,31.9407407 40,29.4666667 L40,10.5777778 L40,10.5777778 Z M36.0708857,10.1656256 L36.0708857,28.3185284 C36.0708857,33.4867666 33.4796478,36.0708857 28.297172,36.0708857 L10.1442692,36.0708857 C4.976031,36.0708857 2.3919119,33.4867666 2.3919119,28.3185284 L2.3919119,10.1656256 C2.3919119,4.98314979 4.976031,2.3919119 10.1442692,2.3919119 L28.297172,2.3919119 C33.4796478,2.3919119 36.0708857,4.98314979 36.0708857,10.1656256 L36.0708857,10.1656256 Z M12.124431,26.1138222 C12.2033698,25.7632599 12.3921376,25.5001675 12.6907344,25.3245448 C18.0962215,22.044783 22.6445124,22.0145393 26.3356069,25.2338137 C26.5991707,25.4834026 26.7497531,25.776361 26.7873543,26.1126888 C26.8034739,26.4725132 26.7051334,26.7923968 26.4923329,27.0723398 C26.242744,27.3359036 25.9472345,27.47984 25.6058043,27.5041493 C25.2510823,27.5335608 24.9311986,27.4352203 24.6461533,27.2091279 C21.7732764,24.8500579 18.2353829,24.9499615 14.0324729,27.5088387 C13.7205841,27.6895636 13.3960045,27.7379055 13.0587341,27.6538644 C12.7081718,27.5749257 12.4425282,27.3795119 12.2618033,27.0676231 C12.0728888,26.7741285 12.027098,26.4561949 12.124431,26.1138222 L12.124431,26.1138222 Z M13.6253553,15.0562312 C13.6253553,14.3016399 13.3619602,13.6609492 12.8351701,13.1341591 C12.3226176,12.6358441 11.6961644,12.3866866 10.9558108,12.3866866 C10.2154571,12.3866866 9.58188517,12.6358441 9.05509505,13.1341591 C8.5425425,13.6609492 8.28626622,14.3016399 8.28626622,15.0562312 C8.28626622,15.7965848 8.5425425,16.4159192 9.05509505,16.9142341 C9.58188517,17.4552618 10.2154571,17.7257757 10.9558108,17.7257757 C11.6961644,17.7257757 12.3226176,17.4552618 12.8351701,16.9142341 C13.3619602,16.4159192 13.6253553,15.7965848 13.6253553,15.0562312 L13.6253553,15.0562312 Z M29.3863462,16.9142341 C29.9131363,16.4159192 30.1765314,15.7965848 30.1765314,15.0562312 C30.1765314,14.3016399 29.9131363,13.6609492 29.3863462,13.1341591 C28.8737936,12.6358441 28.2473405,12.3866866 27.5069868,12.3866866 C26.7666332,12.3866866 26.1330613,12.6358441 25.6062711,13.1341591 C25.0937186,13.6609492 24.8374423,14.3016399 24.8374423,15.0562312 C24.8374423,15.7965848 25.0937186,16.4159192 25.6062711,16.9142341 C26.1330613,17.4552618 26.7666332,17.7257757 27.5069868,17.7257757 C28.2473405,17.7257757 28.8737936,17.4552618 29.3863462,16.9142341 Z" id="path-1"></path>
        <path d="M40,10.5777778 C40,8.08888889 39.562963,6.04444444 38.6888889,4.44444444 C37.0888889,1.48148148 34.0074074,3.69113109e-15 29.4444444,3.69113109e-15 L10.5555556,3.69113109e-15 C3.51851852,3.69113109e-15 0,3.52592593 0,10.5777778 L0,29.4666667 C0,36.4888889 3.51851852,40 10.5555556,40 L29.4444444,40 C34.0074074,40 37.0888889,38.5259259 38.6888889,35.5777778 C39.562963,33.9777778 40,31.9407407 40,29.4666667 L40,10.5777778 L40,10.5777778 Z M36.0708857,10.1656256 L36.0708857,28.3185284 C36.0708857,33.4867666 33.4796478,36.0708857 28.297172,36.0708857 L10.1442692,36.0708857 C4.976031,36.0708857 2.3919119,33.4867666 2.3919119,28.3185284 L2.3919119,10.1656256 C2.3919119,4.98314979 4.976031,2.3919119 10.1442692,2.3919119 L28.297172,2.3919119 C33.4796478,2.3919119 36.0708857,4.98314979 36.0708857,10.1656256 L36.0708857,10.1656256 Z M13.6253553,15.0562312 C13.6253553,14.3016399 13.3619602,13.6609492 12.8351701,13.1341591 C12.3226176,12.6358441 11.6961644,12.3866866 10.9558108,12.3866866 C10.2154571,12.3866866 9.58188517,12.6358441 9.05509505,13.1341591 C8.5425425,13.6609492 8.28626622,14.3016399 8.28626622,15.0562312 C8.28626622,15.7965848 8.5425425,16.4159192 9.05509505,16.9142341 C9.58188517,17.4552618 10.2154571,17.7257757 10.9558108,17.7257757 C11.6961644,17.7257757 12.3226176,17.4552618 12.8351701,16.9142341 C13.3619602,16.4159192 13.6253553,15.7965848 13.6253553,15.0562312 L13.6253553,15.0562312 Z M29.3863462,16.9142341 C29.9131363,16.4159192 30.1765314,15.7965848 30.1765314,15.0562312 C30.1765314,14.3016399 29.9131363,13.6609492 29.3863462,13.1341591 C28.8737936,12.6358441 28.2473405,12.3866866 27.5069868,12.3866866 C26.7666332,12.3866866 26.1330613,12.6358441 25.6062711,13.1341591 C25.0937186,13.6609492 24.8374423,14.3016399 24.8374423,15.0562312 C24.8374423,15.7965848 25.0937186,16.4159192 25.6062711,16.9142341 C26.1330613,17.4552618 26.7666332,17.7257757 27.5069868,17.7257757 C28.2473405,17.7257757 28.8737936,17.4552618 29.3863462,16.9142341 Z M12.987013,27.012987 C12.987013,26.1522835 13.6852512,25.4545455 14.5535502,25.4545455 L24.4074888,25.4545455 C25.2726634,25.4545455 25.974026,26.1462828 25.974026,27.012987 L25.974026,27.012987 C25.974026,27.8736905 25.2757877,28.5714286 24.4074888,28.5714286 L14.5535502,28.5714286 C13.6883756,28.5714286 12.987013,27.8796912 12.987013,27.012987 L12.987013,27.012987 Z" id="path-3"></path>
        <path d="M40,10.5777778 C40,8.08888889 39.562963,6.04444444 38.6888889,4.44444444 C37.0888889,1.48148148 34.0074074,3.69113109e-15 29.4444444,3.69113109e-15 L10.5555556,3.69113109e-15 C3.51851852,3.69113109e-15 0,3.52592593 0,10.5777778 L0,29.4666667 C0,36.4888889 3.51851852,40 10.5555556,40 L29.4444444,40 C34.0074074,40 37.0888889,38.5259259 38.6888889,35.5777778 C39.562963,33.9777778 40,31.9407407 40,29.4666667 L40,10.5777778 L40,10.5777778 Z M36.0708857,10.1656256 L36.0708857,28.3185284 C36.0708857,33.4867666 33.4796478,36.0708857 28.297172,36.0708857 L10.1442692,36.0708857 C4.976031,36.0708857 2.3919119,33.4867666 2.3919119,28.3185284 L2.3919119,10.1656256 C2.3919119,4.98314979 4.976031,2.3919119 10.1442692,2.3919119 L28.297172,2.3919119 C33.4796478,2.3919119 36.0708857,4.98314979 36.0708857,10.1656256 L36.0708857,10.1656256 Z M14.1379078,27.4856305 C14.3372338,27.7846195 14.6077477,27.9625891 14.9494494,28.0195394 C21.1712678,29.1443075 25.4283015,27.5425808 27.7205504,23.2143592 C27.8771637,22.8868951 27.9127576,22.559431 27.8273322,22.2319668 C27.7134316,21.8902651 27.5069868,21.6268701 27.2079979,21.4417817 C26.8805337,21.2851684 26.5530696,21.2566932 26.2256055,21.3563562 C25.8839038,21.4560192 25.6205087,21.662464 25.4354203,21.9756906 C23.5987736,25.2076192 20.2600633,26.3822187 15.4192892,25.4994894 C15.0633499,25.4425391 14.7430046,25.5137269 14.4582532,25.7130529 C14.1592642,25.9123789 13.9812946,26.1900115 13.9243443,26.5459508 C13.8531564,26.8876525 13.9243443,27.2008791 14.1379078,27.4856305 L14.1379078,27.4856305 Z M13.6253553,15.0562312 C13.6253553,14.3016399 13.3619602,13.6609492 12.8351701,13.1341591 C12.3226176,12.6358441 11.6961644,12.3866866 10.9558108,12.3866866 C10.2154571,12.3866866 9.58188517,12.6358441 9.05509505,13.1341591 C8.5425425,13.6609492 8.28626622,14.3016399 8.28626622,15.0562312 C8.28626622,15.7965848 8.5425425,16.4159192 9.05509505,16.9142341 C9.58188517,17.4552618 10.2154571,17.7257757 10.9558108,17.7257757 C11.6961644,17.7257757 12.3226176,17.4552618 12.8351701,16.9142341 C13.3619602,16.4159192 13.6253553,15.7965848 13.6253553,15.0562312 L13.6253553,15.0562312 Z M29.3863462,16.9142341 C29.9131363,16.4159192 30.1765314,15.7965848 30.1765314,15.0562312 C30.1765314,14.3016399 29.9131363,13.6609492 29.3863462,13.1341591 C28.8737936,12.6358441 28.2473405,12.3866866 27.5069868,12.3866866 C26.7666332,12.3866866 26.1330613,12.6358441 25.6062711,13.1341591 C25.0937186,13.6609492 24.8374423,14.3016399 24.8374423,15.0562312 C24.8374423,15.7965848 25.0937186,16.4159192 25.6062711,16.9142341 C26.1330613,17.4552618 26.7666332,17.7257757 27.5069868,17.7257757 C28.2473405,17.7257757 28.8737936,17.4552618 29.3863462,16.9142341 Z" id="path-5"></path>
        <path d="M80,21.1555556 C80,16.1777778 79.1259259,12.0888889 77.3777778,8.88888889 C74.1777778,2.96296296 68.0148148,0 58.8888889,0 L21.1111111,0 C7.03703704,0 0,7.05185185 0,21.1555556 L0,58.9333333 C0,72.9777778 7.03703704,80 21.1111111,80 L58.8888889,80 C68.0148148,80 74.1777778,77.0518519 77.3777778,71.1555556 C79.1259259,67.9555556 80,63.8814815 80,58.9333333 L80,21.1555556 L80,21.1555556 Z M72.1420058,20.3312511 L72.1420058,56.6370568 C72.1420058,66.9735332 66.95953,72.1417714 56.5945785,72.1417714 L20.2887728,72.1417714 C9.95229642,72.1417714 4.78405821,66.9735332 4.78405821,56.6370568 L4.78405821,20.3312511 C4.78405821,9.96629958 9.95229642,4.7838238 20.2887728,4.7838238 L56.5945785,4.7838238 C66.95953,4.7838238 72.1420058,9.96629958 72.1420058,20.3312511 L72.1420058,20.3312511 Z M25.2331231,52.8260926 C35.9279713,59.5732947 44.4181197,58.2307515 51.9115527,51.9220204 C52.4473117,51.4321182 52.7586564,50.8515467 52.8455867,50.180306 C52.8903806,49.4613296 52.7048951,48.8182271 52.2891302,48.2509987 C51.7992281,47.7152396 51.2133231,47.4170958 50.5314154,47.3565672 C49.8231059,47.2853716 49.1800035,47.4708571 48.602108,47.9130236 C42.7748863,52.5301677 36.3076563,53.76868 27.9924337,48.5050034 C27.3750593,48.1327222 26.7276863,48.0247237 26.0503148,48.1810079 C25.3465417,48.3266251 24.8085145,48.7081209 24.4362333,49.3254953 C24.0482174,49.905801 23.9455524,50.5399731 24.1282383,51.2280115 C24.2738555,51.9317847 24.6421504,52.4644784 25.2331231,52.8260926 Z M27.250945,30.1124623 C27.250945,28.6032798 26.7241549,27.3218984 25.6705746,26.2683182 C24.6454695,25.2716882 23.3925633,24.7733732 21.9118559,24.7733732 C20.4311485,24.7733732 19.1640047,25.2716882 18.1104245,26.2683182 C17.0853194,27.3218984 16.5727669,28.6032798 16.5727669,30.1124623 C16.5727669,31.5931697 17.0853194,32.8318383 18.1104245,33.8284683 C19.1640047,34.9105237 20.4311485,35.4515514 21.9118559,35.4515514 C23.3925633,35.4515514 24.6454695,34.9105237 25.6705746,33.8284683 C26.7241549,32.8318383 27.250945,31.5931697 27.250945,30.1124623 L27.250945,30.1124623 Z M58.7729268,33.8284683 C59.826507,32.8318383 60.3532972,31.5931697 60.3532972,30.1124623 C60.3532972,28.6032798 59.826507,27.3218984 58.7729268,26.2683182 C57.7478217,25.2716882 56.4949155,24.7733732 55.0142081,24.7733732 C53.5335007,24.7733732 52.2663569,25.2716882 51.2127767,26.2683182 C50.1876716,27.3218984 49.675119,28.6032798 49.675119,30.1124623 C49.675119,31.5931697 50.1876716,32.8318383 51.2127767,33.8284683 C52.2663569,34.9105237 53.5335007,35.4515514 55.0142081,35.4515514 C56.4949155,35.4515514 57.7478217,34.9105237 58.7729268,33.8284683 Z" id="path-7"></path>
    </defs>
    <g id="✏️️-v1" stroke="none" stroke-width="1" fill="none" fill-rule="evenodd">
        <g id="Home" transform="translate(-70.000000, -112.000000)">
            <g id="Bolig-status" transform="translate(70.000000, 112.000000)">
                <g id="4" transform="translate(0.000000, 20.000000)">
                    <mask id="mask-2" fill="white">
                        <use xlink:href="#path-1"></use>
                    </mask>
                    <use id="Shape-Copy-3" fill="#FF5454" fill-rule="nonzero" xlink:href="#path-1"></use>
                    <g id="Status---Disabled" mask="url(#mask-2)" fill-rule="evenodd" fill="#C5CDD4">
                        <rect id="Disabled" x="0" y="0" width="40" height="40"></rect>
                    </g>
                </g>
                <g id="3" transform="translate(50.000000, 20.000000)">
                    <mask id="mask-4" fill="white">
                        <use xlink:href="#path-3"></use>
                    </mask>
                    <use id="Combined-Shape" fill="#FFAA54" fill-rule="evenodd" xlink:href="#path-3"></use>
                    <g id="Status---Disabled" mask="url(#mask-4)" fill-rule="evenodd" fill="#C5CDD4">
                        <rect id="Disabled" x="0" y="0" width="40" height="40"></rect>
                    </g>
                </g>
                <g id="2" transform="translate(100.000000, 20.000000)">
                    <mask id="mask-6" fill="white">
                        <use xlink:href="#path-5"></use>
                    </mask>
                    <use id="Shape" fill="#3498DB" fill-rule="nonzero" xlink:href="#path-5"></use>
                    <g id="Status---Disabled" mask="url(#mask-6)" fill-rule="evenodd" fill="#C5CDD4">
                        <rect id="Disabled" x="0" y="0" width="40" height="40"></rect>
                    </g>
                </g>
                <g id="1" transform="translate(156.000000, 0.000000)">
                    <mask id="mask-8" fill="white">
                        <use xlink:href="#path-7"></use>
                    </mask>
                    <use id="Shape-Copy" fill="#4FC14E" fill-rule="nonzero" xlink:href="#path-7"></use>
                    <g id="Status---Disabled-OFF" mask="url(#mask-8)"></g>
                </g>
            </g>
        </g>
    </g>
</svg>