<?xml version="1.0" encoding="UTF-8"?>
<svg width="77px" height="77px" viewBox="0 0 77 77" version="1.1" xmlns="http://www.w3.org/2000/svg" xmlns:xlink="http://www.w3.org/1999/xlink">
    <!-- Generator: Sketch 43.2 (39069) - http://www.bohemiancoding.com/sketch -->
    <title>Shape Copy</title>
    <desc>Created with Sketch.</desc>
    <defs>
        <path d="M77,20.3622222 C77,15.5711111 76.1587037,11.6355556 74.4761111,8.55555556 C71.3961111,2.85185185 65.4642593,0 56.6805556,0 L20.3194444,0 C6.77314815,0 0,6.78740741 0,20.3622222 L0,56.7233333 C0,70.2411111 6.77314815,77 20.3194444,77 L56.6805556,77 C65.4642593,77 71.3961111,74.1624074 74.4761111,68.4872222 C76.1587037,65.4072222 77,61.4859259 77,56.7233333 L77,20.3622222 L77,20.3622222 Z M69.4366806,19.5688292 L69.4366806,54.5131671 C69.4366806,64.4620257 64.4485476,69.436455 54.4722818,69.436455 L19.5279439,69.436455 C9.5790853,69.436455 4.60465603,64.4620257 4.60465603,54.5131671 L4.60465603,19.5688292 C4.60465603,9.59256335 9.5790853,4.60443041 19.5279439,4.60443041 L54.4722818,4.60443041 C64.4485476,4.60443041 69.4366806,9.59256335 69.4366806,19.5688292 L69.4366806,19.5688292 Z M24.286881,50.8451141 C34.5806723,57.3392961 42.7524402,56.0470983 49.9648694,49.9749446 C50.4805375,49.5034138 50.7802068,48.9446137 50.8638772,48.2985445 C50.9069913,47.6065297 50.7284615,46.9875436 50.3282879,46.4415862 C49.856757,45.9259181 49.2928235,45.6389547 48.6364873,45.5806959 C47.9547395,45.5121702 47.3357534,45.6906999 46.779529,46.1162852 C41.1708281,50.5602864 34.9461192,51.7523545 26.9427174,46.6860658 C26.3484946,46.3277451 25.7253981,46.2237966 25.073428,46.3742201 C24.3960463,46.5143766 23.8781952,46.8815663 23.5198746,47.4757892 C23.1464093,48.0343334 23.0475942,48.6447241 23.2234294,49.3069611 C23.3635859,49.9843428 23.7180698,50.4970605 24.286881,50.8451141 Z M26.2290345,28.983245 C26.2290345,27.5306568 25.721999,26.2973272 24.7079281,25.2832562 C23.7212644,24.3239999 22.5153422,23.8443717 21.0901613,23.8443717 C19.6649805,23.8443717 18.4453546,24.3239999 17.4312836,25.2832562 C16.4446199,26.2973272 15.9512881,27.5306568 15.9512881,28.983245 C15.9512881,30.4084258 16.4446199,31.6006444 17.4312836,32.5599007 C18.4453546,33.601379 19.6649805,34.1221182 21.0901613,34.1221182 C22.5153422,34.1221182 23.7212644,33.601379 24.7079281,32.5599007 C25.721999,31.6006444 26.2290345,30.4084258 26.2290345,28.983245 L26.2290345,28.983245 Z M56.568942,32.5599007 C57.583013,31.6006444 58.0900485,30.4084258 58.0900485,28.983245 C58.0900485,27.5306568 57.583013,26.2973272 56.568942,25.2832562 C55.5822784,24.3239999 54.3763561,23.8443717 52.9511753,23.8443717 C51.5259944,23.8443717 50.3063685,24.3239999 49.2922976,25.2832562 C48.3056339,26.2973272 47.8123021,27.5306568 47.8123021,28.983245 C47.8123021,30.4084258 48.3056339,31.6006444 49.2922976,32.5599007 C50.3063685,33.601379 51.5259944,34.1221182 52.9511753,34.1221182 C54.3763561,34.1221182 55.5822784,33.601379 56.568942,32.5599007 Z" id="path-1"></path>
    </defs>
    <g id="Symbols" stroke="none" stroke-width="1" fill="none" fill-rule="evenodd">
        <g id="1">
            <mask id="mask-2" fill="white">
                <use xlink:href="#path-1"></use>
            </mask>
            <use id="Shape-Copy" fill="#4FC14E" fill-rule="nonzero" xlink:href="#path-1"></use>
        </g>
    </g>
</svg>