<?xml version="1.0" encoding="UTF-8" standalone="no"?>
<svg width="80px" height="80px" viewBox="0 0 80 80" version="1.1" xmlns="http://www.w3.org/2000/svg" xmlns:xlink="http://www.w3.org/1999/xlink">
    <!-- Generator: Sketch 42 (36781) - http://www.bohemiancoding.com/sketch -->
    <title>1</title>
    <desc>Created with Sketch.</desc>
    <defs>
        <path d="M80,21.1555556 C80,16.1777778 79.1259259,12.0888889 77.3777778,8.88888889 C74.1777778,2.96296296 68.0148148,0 58.8888889,0 L21.1111111,0 C7.03703704,0 0,7.05185185 0,21.1555556 L0,58.9333333 C0,72.9777778 7.03703704,80 21.1111111,80 L58.8888889,80 C68.0148148,80 74.1777778,77.0518519 77.3777778,71.1555556 C79.1259259,67.9555556 80,63.8814815 80,58.9333333 L80,21.1555556 L80,21.1555556 Z M72.1420058,20.3312511 L72.1420058,56.6370568 C72.1420058,66.9735332 66.95953,72.1417714 56.5945785,72.1417714 L20.2887728,72.1417714 C9.95229642,72.1417714 4.78405821,66.9735332 4.78405821,56.6370568 L4.78405821,20.3312511 C4.78405821,9.96629958 9.95229642,4.7838238 20.2887728,4.7838238 L56.5945785,4.7838238 C66.95953,4.7838238 72.1420058,9.96629958 72.1420058,20.3312511 L72.1420058,20.3312511 Z M25.2331231,52.8260926 C35.9279713,59.5732947 44.4181197,58.2307515 51.9115527,51.9220204 C52.4473117,51.4321182 52.7586564,50.8515467 52.8455867,50.180306 C52.8903806,49.4613296 52.7048951,48.8182271 52.2891302,48.2509987 C51.7992281,47.7152396 51.2133231,47.4170958 50.5314154,47.3565672 C49.8231059,47.2853716 49.1800035,47.4708571 48.602108,47.9130236 C42.7748863,52.5301677 36.3076563,53.76868 27.9924337,48.5050034 C27.3750593,48.1327222 26.7276863,48.0247237 26.0503148,48.1810079 C25.3465417,48.3266251 24.8085145,48.7081209 24.4362333,49.3254953 C24.0482174,49.905801 23.9455524,50.5399731 24.1282383,51.2280115 C24.2738555,51.9317847 24.6421504,52.4644784 25.2331231,52.8260926 Z M27.250945,30.1124623 C27.250945,28.6032798 26.7241549,27.3218984 25.6705746,26.2683182 C24.6454695,25.2716882 23.3925633,24.7733732 21.9118559,24.7733732 C20.4311485,24.7733732 19.1640047,25.2716882 18.1104245,26.2683182 C17.0853194,27.3218984 16.5727669,28.6032798 16.5727669,30.1124623 C16.5727669,31.5931697 17.0853194,32.8318383 18.1104245,33.8284683 C19.1640047,34.9105237 20.4311485,35.4515514 21.9118559,35.4515514 C23.3925633,35.4515514 24.6454695,34.9105237 25.6705746,33.8284683 C26.7241549,32.8318383 27.250945,31.5931697 27.250945,30.1124623 L27.250945,30.1124623 Z M58.7729268,33.8284683 C59.826507,32.8318383 60.3532972,31.5931697 60.3532972,30.1124623 C60.3532972,28.6032798 59.826507,27.3218984 58.7729268,26.2683182 C57.7478217,25.2716882 56.4949155,24.7733732 55.0142081,24.7733732 C53.5335007,24.7733732 52.2663569,25.2716882 51.2127767,26.2683182 C50.1876716,27.3218984 49.675119,28.6032798 49.675119,30.1124623 C49.675119,31.5931697 50.1876716,32.8318383 51.2127767,33.8284683 C52.2663569,34.9105237 53.5335007,35.4515514 55.0142081,35.4515514 C56.4949155,35.4515514 57.7478217,34.9105237 58.7729268,33.8284683 Z" id="path-1"></path>
    </defs>
    <g id="✏️️-v1" stroke="none" stroke-width="1" fill="none" fill-rule="evenodd">
        <g id="Home" transform="translate(-226.000000, -112.000000)">
            <g id="Bolig-status" transform="translate(70.000000, 112.000000)">
                <g id="1" transform="translate(156.000000, 0.000000)">
                    <mask id="mask-2" fill="white">
                        <use xlink:href="#path-1"></use>
                    </mask>
                    <use id="Shape-Copy" fill="#4FC14E" fill-rule="nonzero" xlink:href="#path-1"></use>
                    <g id="Status---Disabled-OFF" mask="url(#mask-2)"></g>
                </g>
            </g>
        </g>
    </g>
</svg>