<?xml version="1.0" encoding="UTF-8" standalone="no"?>
<svg width="27px" height="22px" viewBox="0 0 27 22" version="1.1" xmlns="http://www.w3.org/2000/svg" xmlns:xlink="http://www.w3.org/1999/xlink">
    <!-- Generator: Sketch 42 (36781) - http://www.bohemiancoding.com/sketch -->
    <title>Shape</title>
    <desc>Created with Sketch.</desc>
    <defs></defs>
    <g id="✏️️-v1" stroke="none" stroke-width="1" fill="none" fill-rule="evenodd">
        <g id="Soveværelse-detail" transform="translate(-10.000000, -23.000000)" fill-rule="nonzero" fill="#000000">
            <path d="M35.5112782,32.4150376 L15.7518797,32.4150376 L21.9774436,26.1894737 C22.6541353,25.512782 22.6541353,24.4300752 21.9774436,23.8210526 C21.3007519,23.1443609 20.2180451,23.1443609 19.6090226,23.8210526 L10.4736842,32.8887218 C10.1353383,33.2270677 10,33.7007519 10,34.1067669 C10,34.512782 10.1353383,34.9864662 10.4736842,35.324812 L19.5413534,44.3924812 C20.2180451,45.0691729 21.3007519,45.0691729 21.9097744,44.3924812 C22.5864662,43.7157895 22.5864662,42.6330827 21.9097744,42.0240602 L15.6842105,35.7984962 L35.443609,35.7984962 C36.3233083,35.7984962 37,35.0541353 37,34.1067669 C37,33.1593985 36.3909774,32.4150376 35.5112782,32.4150376 Z" id="Shape"></path>
        </g>
    </g>
</svg>