<?xml version="1.0" encoding="UTF-8" standalone="no"?>
<svg width="30px" height="27px" viewBox="0 0 30 27" version="1.1" xmlns="http://www.w3.org/2000/svg" xmlns:xlink="http://www.w3.org/1999/xlink">
    <!-- Generator: Sketch 42 (36781) - http://www.bohemiancoding.com/sketch -->
    <title>noun_244073_cc copy</title>
    <desc>Created with Sketch.</desc>
    <defs></defs>
    <g id="✏️️-v1" stroke="none" stroke-width="1" fill="none" fill-rule="evenodd">
        <g id="Soveværelse-detail" transform="translate(-319.000000, -513.000000)" fill-rule="nonzero" fill="#8C9297">
            <g id="Group-3" transform="translate(0.000000, 498.000000)">
                <g id="noun_244073_cc-copy" transform="translate(319.000000, 15.000000)">
                    <g id="Group">
                        <path d="M18.4209681,0.0889995826 C24.4255935,0.766941165 29.2357505,5.60938104 29.9136921,11.6140065 C30.7853312,19.2973444 24.9421205,25.8830627 17.484763,26.205892 C17.1619337,26.205892 16.8713873,25.9476285 16.8713873,25.6247992 L16.8713873,23.2035793 C16.8713873,22.8807499 17.1296508,22.6224865 17.4524801,22.5902035 C22.5531834,22.2673742 26.58855,17.9091783 26.3625695,12.6470603 C26.136589,7.83690338 22.1980712,3.86610269 17.3556313,3.64012216 C11.9320987,3.3818587 7.44477103,7.64320579 7.38020517,12.9698897 L10.8990448,12.9698897 C11.0927424,12.9698897 11.1895912,13.2281531 11.0927424,13.3895678 L5.76605854,20.6209447 C5.66920975,20.7500764 5.50779508,20.7500764 5.41094629,20.6209447 L0.05197949,13.3572848 C-0.07715224,13.1958702 0.05197949,12.9376067 0.245677085,12.9376067 L3.76451673,12.9376067 C3.86136553,5.28655172 10.5439326,-0.814922528 18.4209681,0.0889995826 Z M15.8706164,11.1620454 C14.8052796,11.7108553 14.3856015,13.0667385 14.9989772,14.1320752 C15.0312602,14.228924 15.095826,14.2934899 15.1603919,14.3580558 L14.3533186,18.1997247 C14.2241869,18.6839687 14.5792991,19.2004956 15.095826,19.2650615 C15.4832212,19.3296274 15.8706164,19.039081 16.0320311,18.6839687 L17.5493289,15.1328461 C17.6461777,15.1005632 17.7430265,15.0682803 17.8075924,15.0359973 C18.453251,14.713168 18.8729291,14.0997923 19.0020609,13.4541336 L23.6508032,10.5486697 C24.0704813,10.2904063 24.199613,9.67703054 23.8767837,9.25735241 C23.6185202,8.93452309 23.1665592,8.86995722 22.8114469,9.03137189 L17.8075924,11.1620454 C17.1942167,10.871499 16.4839921,10.8392161 15.8706164,11.1620454 Z M16.4839921,12.324231 C16.9036703,12.0982505 17.4524801,12.2596651 17.6461777,12.6793433 C17.8721582,13.0990214 17.7107436,13.6478312 17.2910654,13.8415288 C16.8713873,14.0675094 16.3225775,13.9060947 16.1288799,13.4864166 C15.8706164,13.0667385 16.0320311,12.5502115 16.4839921,12.324231 Z" id="Shape"></path>
                    </g>
                </g>
            </g>
        </g>
    </g>
</svg>