<?xml version="1.0" encoding="UTF-8"?>
<svg width="29px" height="32px" viewBox="0 0 29 32" version="1.1" xmlns="http://www.w3.org/2000/svg" xmlns:xlink="http://www.w3.org/1999/xlink">
    <!-- Generator: Sketch 42 (36781) - http://www.bohemiancoding.com/sketch -->
    <title>Shape</title>
    <desc>Created with Sketch.</desc>
    <defs></defs>
    <g id="✏️️-v1" stroke="none" stroke-width="1" fill="none" fill-rule="evenodd">
        <g id="Home" transform="translate(-10.000000, -14.000000)" fill-rule="nonzero" fill="#FFFFFF">
            <path d="M39,21.0859195 C39,21.0859195 39,22.6650234 39,24.4216309 L39,37.753027 L39,44.1910355 C39,44.7320422 38.5530702,45.1872408 38.0017544,45.1872408 L10.9982456,45.1872408 C10.4555207,45.1872408 10,44.7384823 10,44.1849106 C10,44.1849106 10,42.7091695 10,37.753027 L10,24.4216309 C10,23.2823341 10,21.085427 10,21.085427 C10,20.5369432 10.4159713,19.9159338 10.929098,19.6976988 L23.570902,14.321086 C24.0816808,14.1038497 24.9159713,14.1028511 25.429098,14.321086 L38.070902,19.6976988 C38.5816808,19.9149352 39,20.5374613 39,21.0859195 Z" id="Shape"></path>
        </g>
    </g>
</svg>