<?xml version="1.0" encoding="UTF-8"?>
<svg width="40px" height="40px" viewBox="0 0 40 40" version="1.1" xmlns="http://www.w3.org/2000/svg" xmlns:xlink="http://www.w3.org/1999/xlink">
    <!-- Generator: Sketch 42 (36781) - http://www.bohemiancoding.com/sketch -->
    <title>noun_865874_cc</title>
    <desc>Created with Sketch.</desc>
    <defs></defs>
    <g id="✏️️-v1" stroke="none" stroke-width="1" fill="none" fill-rule="evenodd">
        <g id="Home" transform="translate(-325.000000, -14.000000)" fill-rule="nonzero">
            <g id="noun_865874_cc" transform="translate(325.000000, 14.000000)">
                <g id="Essential-Icons">
                    <path d="M27.804878,14.6341463 L12.195122,14.6341463 C11.3869004,14.6341463 10.7317073,13.9789533 10.7317073,13.1707317 C10.7317073,12.3625101 11.3869004,11.7073171 12.195122,11.7073171 L27.804878,11.7073171 C28.6130996,11.7073171 29.2682927,12.3625101 29.2682927,13.1707317 C29.2682927,13.9789533 28.6130996,14.6341463 27.804878,14.6341463 Z" id="Shape" fill="#000000"></path>
                    <path d="M27.804878,21.4634146 L12.195122,21.4634146 C11.3869004,21.4634146 10.7317074,20.8082216 10.7317074,20 C10.7317074,19.1917784 11.3869004,18.5365854 12.195122,18.5365854 L27.804878,18.5365854 C28.6130996,18.5365854 29.2682927,19.1917784 29.2682927,20 C29.2682927,20.8082216 28.6130996,21.4634146 27.804878,21.4634146 L27.804878,21.4634146 Z" id="Shape" fill="#000000"></path>
                    <path d="M27.804878,28.2926829 L12.195122,28.2926829 C11.3869004,28.2926829 10.7317073,27.6374899 10.7317073,26.8292683 C10.7317073,26.0210467 11.3869004,25.3658537 12.195122,25.3658537 L27.804878,25.3658537 C28.6130996,25.3658537 29.2682927,26.0210467 29.2682927,26.8292683 C29.2682927,27.6374899 28.6130996,28.2926829 27.804878,28.2926829 Z" id="Shape" fill="#000000"></path>
                    <path d="M20,40 C8.954305,40 1.73303106e-15,31.045695 0,20 C-8.66515531e-16,8.954305 8.954305,2.59954659e-15 20,0 C31.045695,-1.73303106e-15 40,8.954305 40,20 C40,25.3043298 37.8928632,30.3914081 34.1421356,34.1421356 C30.3914081,37.8928632 25.3043298,40 20,40 Z M20,2.92682927 C10.5707482,2.92682927 2.92682927,10.5707482 2.92682927,20 C2.92682927,29.4292518 10.5707482,37.0731707 20,37.0731707 C29.4292518,37.0731707 37.0731707,29.4292518 37.0731707,20 C37.0731707,10.5707482 29.4292518,2.92682927 20,2.92682927 L20,2.92682927 Z" id="Shape" fill="#3F3F3F" opacity="0.104011194"></path>
                </g>
            </g>
        </g>
    </g>
</svg>