<?xml version="1.0" encoding="UTF-8"?>
<svg width="125px" height="125px" viewBox="0 0 125 125" version="1.1" xmlns="http://www.w3.org/2000/svg" xmlns:xlink="http://www.w3.org/1999/xlink">
    <!-- Generator: Sketch 42 (36781) - http://www.bohemiancoding.com/sketch -->
    <title>Humidity gauge</title>
    <desc>Created with Sketch.</desc>
    <defs></defs>
    <g id="✏️️-v1" stroke="none" stroke-width="1" fill="none" fill-rule="evenodd">
        <g id="Artboard-2" transform="translate(-38.000000, -593.000000)">
            <g id="Card-2-Copy" transform="translate(6.000000, 530.000000)">
                <g id="Humidity-gauge" transform="translate(32.000000, 63.000000)">
                    <ellipse id="Oval" fill="#000000" fill-rule="nonzero" cx="61.9291667" cy="15.704" rx="1.15277778" ry="1.14923077"></ellipse>
                    <ellipse id="Oval" fill="#000000" fill-rule="nonzero" cx="49.8597222" cy="17.4347692" rx="1.15277778" ry="1.14923077"></ellipse>
                    <path d="M38.0777778,21.2258462 C37.5263889,21.5429231 37.3347222,22.2421538 37.6513889,22.7932308 C37.9708333,23.3443077 38.675,23.534 39.2277778,23.2169231 C39.7777778,22.8956923 39.9680556,22.1950769 39.6513889,21.644 C39.3319444,21.0943077 38.6277778,20.9046154 38.0777778,21.2258462 Z" id="Shape" fill="#000000" fill-rule="nonzero"></path>
                    <ellipse id="Oval" fill="#000000" fill-rule="nonzero" cx="29.0694444" cy="29.7343077" rx="1.15277778" ry="1.14923077"></ellipse>
                    <ellipse id="Oval" fill="#000000" fill-rule="nonzero" cx="21.7625" cy="39.464" rx="1.15277778" ry="1.14923077"></ellipse>
                    <path d="M16.9333333,51.8590769 C17.5486111,52.0266154 18.1805556,51.6596923 18.3458333,51.0490769 C18.5111111,50.4343077 18.1444444,49.8029231 17.5319444,49.6367692 C16.9125,49.4733846 16.2833333,49.8361538 16.1180556,50.4509231 C15.9513889,51.0643077 16.3180556,51.6970769 16.9333333,51.8590769 Z" id="Shape" fill="#000000" fill-rule="nonzero"></path>
                    <path d="M16.9388889,62.8196923 C16.9375,62.1841538 16.4222222,61.6690769 15.7847222,61.6690769 C15.1472222,61.6704615 14.6305556,62.1841538 14.6333333,62.8141538 C14.6305556,63.4538462 15.1472222,63.9689231 15.7847222,63.9661538 C16.425,63.9689231 16.9388889,63.4538462 16.9388889,62.8196923 Z" id="Shape" fill="#000000" fill-rule="nonzero"></path>
                    <path d="M17.2222222,73.7373846 C16.6055556,73.9049231 16.2416667,74.5321538 16.4069444,75.1483077 C16.5680556,75.7630769 17.2027778,76.13 17.8180556,75.9624615 C18.4375,75.7963077 18.7972222,75.1690769 18.6347222,74.5543077 C18.4708333,73.9395385 17.8375,73.5712308 17.2222222,73.7373846 Z" id="Shape" fill="#000000" fill-rule="nonzero"></path>
                    <path d="M21.7416667,85.0247692 C21.1916667,85.346 21.0027778,86.048 21.3236111,86.5990769 C21.6402778,87.1487692 22.3444444,87.3384615 22.8986111,87.0213846 C23.4513889,86.7029231 23.6388889,86.0036923 23.3194444,85.4470769 C23.0013889,84.8973846 22.2944444,84.7076923 21.7416667,85.0247692 Z" id="Shape" fill="#000000" fill-rule="nonzero"></path>
                    <ellipse id="Oval" fill="#000000" fill-rule="nonzero" cx="75.1194444" cy="17.4347692" rx="1.15277778" ry="1.14923077"></ellipse>
                    <ellipse id="Oval" fill="#000000" fill-rule="nonzero" cx="86.325" cy="22.2213846" rx="1.15277778" ry="1.14923077"></ellipse>
                    <ellipse id="Oval" fill="#000000" fill-rule="nonzero" cx="95.9125" cy="29.7343077" rx="1.15416667" ry="1.15061538"></ellipse>
                    <path d="M102.636111,38.4698462 C102.086111,38.7869231 101.901389,39.4916923 102.218056,40.0386154 C102.536111,40.5896923 103.236111,40.7793846 103.788889,40.4595385 C104.340278,40.1424615 104.534722,39.4404615 104.213889,38.8893846 C103.898611,38.3369231 103.193056,38.1513846 102.636111,38.4698462 Z" id="Shape" fill="#000000" fill-rule="nonzero"></path>
                    <path d="M108.044444,51.8590769 C108.658333,51.6970769 109.027778,51.0643077 108.859722,50.4509231 C108.7,49.8347692 108.068056,49.472 107.443056,49.6367692 C106.833333,49.8029231 106.468056,50.4343077 106.631944,51.0490769 C106.798611,51.6596923 107.430556,52.0266154 108.044444,51.8590769 Z" id="Shape" fill="#000000" fill-rule="nonzero"></path>
                    <path d="M109.193056,61.6690769 C108.559722,61.6690769 108.041667,62.1841538 108.041667,62.8196923 C108.041667,63.4538462 108.554167,63.9689231 109.195833,63.9661538 C109.829167,63.9689231 110.35,63.4538462 110.344444,62.8141538 C110.347222,62.1841538 109.831944,61.6704615 109.193056,61.6690769 Z" id="Shape" fill="#000000" fill-rule="nonzero"></path>
                    <path d="M107.755556,73.7401538 C107.140278,73.5726154 106.511111,73.9423077 106.341667,74.5543077 C106.176389,75.1663077 106.541667,75.7990769 107.158333,75.9624615 C107.773611,76.13 108.404167,75.7658462 108.572222,75.1483077 C108.738889,74.5349231 108.373611,73.9049231 107.755556,73.7401538 Z" id="Shape" fill="#000000" fill-rule="nonzero"></path>
                    <path d="M103.230556,85.0289231 C102.681944,84.7118462 101.976389,84.9001538 101.656944,85.4526154 C101.3375,86.0009231 101.526389,86.7043077 102.080556,87.0213846 C102.630556,87.3384615 103.338889,87.1543077 103.655556,86.5990769 C103.973611,86.048 103.7875,85.346 103.230556,85.0289231 Z" id="Shape" fill="#000000" fill-rule="nonzero"></path>
                    <path d="M62.4875,0.00246153846 C28.0527778,0.00246153846 0.0375,27.9301538 0.0375,62.2561538 C0.0375,96.5849231 28.0527778,124.512615 62.4875,124.512615 C96.9236111,124.512615 124.938889,96.5849231 124.938889,62.2561538 C124.938889,27.9301538 96.9236111,0.00246153846 62.4875,0.00246153846 Z M62.4875,112.762769 C34.5583333,112.762769 11.8347222,90.1049231 11.8347222,62.2533846 C11.8347222,34.4129231 34.5569444,11.7606154 62.4875,11.7606154 C90.4180556,11.7606154 113.144444,34.4115385 113.144444,62.2533846 C113.144444,90.1049231 90.4222222,112.762769 62.4875,112.762769 Z" id="Shape" fill="#000000" fill-rule="nonzero"></path>
                    <text id="40" font-family="SFUIDisplay-Regular, SF UI Display" font-size="15" font-weight="normal" fill="#3F3F3F">
                        <tspan x="58" y="35">40</tspan>
                    </text>
                    <text id="60" font-family="SFUIDisplay-Regular, SF UI Display" font-size="15" font-weight="normal" fill="#3F3F3F">
                        <tspan x="84" y="77">60</tspan>
                    </text>
                    <path d="M72.0945728,53.0168412 L71.2419912,33.0545293 L70.2689963,33.0545293 L69.4108785,53.1164936 C62.2718918,54.0535029 56.7356477,60.1641323 56.7356477,67.5564021 C56.7356477,75.5964125 63.2767201,82.1347167 71.3153464,82.1347167 C79.3525887,82.1347167 85.8881248,75.5936444 85.8881248,67.5564021 C85.8881248,59.7793633 79.7691911,53.4251392 72.0945728,53.0168412 Z" id="Shape" fill="#000000" fill-rule="nonzero" transform="translate(71.311886, 57.594623) rotate(52.000000) translate(-71.311886, -57.594623) "></path>
                </g>
            </g>
        </g>
    </g>
</svg>